<svg xmlns="http://www.w3.org/2000/svg" viewBox="0 0 512 512">
  <defs>
    <linearGradient id="bg" x1="0%" y1="0%" x2="100%" y2="100%">
      <stop offset="0%" style="stop-color:#065f46"/>
      <stop offset="100%" style="stop-color:#0d1f0d"/>
    </linearGradient>
    <linearGradient id="leaf" x1="0%" y1="0%" x2="100%" y2="100%">
      <stop offset="0%" style="stop-color:#4ade80"/>
      <stop offset="100%" style="stop-color:#22c55e"/>
    </linearGradient>
  </defs>
  
  <!-- Background -->
  <rect width="512" height="512" rx="100" fill="url(#bg)"/>
  
  <!-- Plant pot -->
  <path d="M180 340 L200 420 L312 420 L332 340 Z" fill="#a16207"/>
  <path d="M175 320 L337 320 L337 345 L175 345 Z" fill="#ca8a04"/>
  
  <!-- Leaves -->
  <ellipse cx="256" cy="200" rx="30" ry="80" fill="url(#leaf)" transform="rotate(-30 256 250)"/>
  <ellipse cx="256" cy="200" rx="30" ry="80" fill="url(#leaf)" transform="rotate(30 256 250)"/>
  <ellipse cx="256" cy="180" rx="25" ry="70" fill="url(#leaf)"/>
  
  <!-- Small decorative leaves -->
  <ellipse cx="220" cy="260" rx="18" ry="45" fill="#34d399" transform="rotate(-45 220 260)"/>
  <ellipse cx="292" cy="260" rx="18" ry="45" fill="#34d399" transform="rotate(45 292 260)"/>
  
  <!-- Water drop -->
  <path d="M400 130 Q400 170 370 170 Q340 170 340 130 Q340 100 370 70 Q400 100 400 130 Z" fill="#38bdf8"/>
  <ellipse cx="355" cy="125" rx="8" ry="12" fill="#7dd3fc"/>
</svg>
